<?xml version="1.0" standalone="no"?>
<!DOCTYPE svg PUBLIC "-//W3C//DTD SVG 20010904//EN"
 "http://www.w3.org/TR/2001/REC-SVG-20010904/DTD/svg10.dtd">
<svg version="1.0" xmlns="http://www.w3.org/2000/svg"
 width="600.000000pt" height="600.000000pt" viewBox="0 0 600.000000 600.000000"
 preserveAspectRatio="xMidYMid meet">
<metadata>
Created by potrace 1.11, written by Peter Selinger 2001-2013
</metadata>
<g transform="translate(0.000000,600.000000) scale(0.100000,-0.100000)"
fill="#000000" stroke="none">
<path d="M0 3000 l0 -3000 3000 0 3000 0 0 3000 0 3000 -3000 0 -3000 0 0
-3000z m950 50 c0 -758 2 -738 -64 -765 -51 -22 -395 -21 -436 0 -59 31 -60
35 -60 317 l0 258 95 0 95 0 0 -194 c0 -228 -1 -226 89 -226 31 0 62 5 69 12
9 9 12 166 12 645 l0 633 100 0 100 0 0 -680z m616 528 c-2 -84 -4 -219 -4
-300 l-2 -148 -155 0 c-183 0 -175 5 -175 -125 0 -82 10 -121 34 -137 6 -4 75
-8 154 -8 l142 0 0 -80 0 -80 -145 0 c-189 0 -188 1 -183 -141 2 -75 7 -102
18 -109 8 -5 81 -10 163 -10 l147 0 0 -85 0 -85 -207 0 c-182 0 -213 3 -249
19 -77 35 -75 18 -72 726 3 572 4 623 20 648 38 57 75 65 320 66 l196 1 -2
-152z m595 123 l29 -29 0 -670 0 -670 -35 -31 -36 -31 -188 0 -188 0 -39 34
-39 34 0 667 0 667 33 29 32 29 201 0 201 0 29 -29z m554 18 c49 -13 81 -42
95 -83 8 -24 17 -686 11 -849 -1 -17 -13 -40 -30 -58 l-29 -29 -141 0 -141 0
0 -215 0 -215 -95 0 -94 0 -3 103 c-2 56 -2 384 0 730 l2 627 193 0 c107 0
210 -5 232 -11z m556 1 c19 -6 46 -21 58 -34 25 -27 17 39 100 -821 28 -286
53 -537 56 -557 l5 -38 -103 0 -103 0 -18 193 c-10 105 -20 202 -23 215 -5 20
-10 22 -84 22 -54 0 -79 -4 -79 -12 0 -21 -40 -373 -45 -395 -5 -22 -10 -23
-99 -23 l-94 0 5 43 c2 23 31 336 63 695 63 713 57 678 125 708 36 16 184 18
236 4z m749 -12 c76 -39 75 -31 78 -480 l3 -396 -33 -32 c-21 -20 -28 -34 -21
-37 42 -16 61 -101 98 -435 l6 -58 -100 0 c-99 0 -101 0 -101 24 0 58 -22 295
-31 329 -12 47 -39 64 -116 73 l-63 7 0 -217 0 -216 -95 0 -95 0 0 730 0 730
213 0 c201 0 215 -1 257 -22z m660 4 c72 -36 70 -13 70 -710 0 -666 0 -662
-50 -707 -20 -19 -39 -20 -251 -23 l-229 -3 -1 385 c0 213 0 454 0 536 0 83 0
238 0 345 l1 195 213 0 c182 0 217 -3 247 -18z m320 -397 c0 -486 -7 -455 105
-455 l65 0 0 435 0 435 93 0 92 0 -1 -690 c-2 -629 -3 -692 -19 -716 -29 -44
-70 -54 -225 -54 l-140 0 0 85 0 85 88 0 c55 0 92 4 100 12 8 8 12 52 12 130
l0 118 -117 0 c-139 0 -190 17 -220 72 -17 30 -18 71 -21 496 l-3 462 96 0 95
0 0 -415z m620 -205 l0 -620 -90 0 -90 0 0 620 0 620 90 0 90 0 0 -620z m0
-755 l0 -85 -90 0 -90 0 0 85 0 85 90 0 90 0 0 -85z"/>
<path d="M1903 3130 c-12 -5 -26 -18 -32 -29 -7 -13 -11 -127 -11 -320 0 -288
1 -302 20 -321 23 -23 68 -26 96 -6 18 14 19 31 22 323 3 286 2 311 -15 330
-22 26 -51 34 -80 23z"/>
<path d="M2480 2995 l0 -135 63 0 c36 0 68 5 75 12 17 17 17 229 0 246 -7 7
-39 12 -75 12 l-63 0 0 -135z"/>
<path d="M3117 3122 c-3 -4 -8 -50 -11 -102 -4 -52 -9 -110 -12 -127 l-5 -33
67 0 67 0 -8 127 c-4 70 -9 131 -11 135 -7 10 -81 10 -87 0z"/>
<path d="M3740 2994 l0 -136 66 4 c88 5 94 15 94 136 0 127 -4 132 -90 132
l-70 0 0 -136z"/>
<path d="M4400 2784 l0 -346 75 4 c60 3 77 7 89 23 13 17 15 69 16 320 0 362
5 345 -106 345 l-74 0 0 -346z"/>
</g>
</svg>
